<?xml version="1.0" encoding="iso-8859-1"?>
<!-- Generator: Adobe Illustrator 19.0.0, SVG Export Plug-In . SVG Version: 6.00 Build 0)  -->
<svg version="1.1" id="Layer_1" xmlns="http://www.w3.org/2000/svg" xmlns:xlink="http://www.w3.org/1999/xlink" x="0px" y="0px"
	 viewBox="0 0 512 512" style="enable-background:new 0 0 512 512;" xml:space="preserve">
<rect x="150.588" y="451.765" style="fill:#3C5D76;" width="75.294" height="60.235"/>
<rect x="286.118" y="451.765" style="fill:#1E2E3B;" width="75.294" height="60.235"/>
<path style="fill:#93C7EF;" d="M406.588,466.824v-75.294c0-83.17-67.42-150.588-150.588-150.588S105.412,308.36,105.412,391.529
	v75.294H406.588z"/>
<path style="fill:#5A8BB0;" d="M406.588,466.824v-75.294c0-83.17-67.42-150.588-150.588-150.588c0,100.894,0,225.882,0,225.882
	H406.588z"/>
<circle style="fill:#BFE4F8;" cx="256" cy="150.588" r="150.588"/>
<path style="fill:#93C7EF;" d="M256,0c83.167,0,150.588,67.42,150.588,150.588S339.167,301.176,256,301.176"/>
<rect x="150.588" y="376.471" style="fill:#3C5D76;" width="210.824" height="45.176"/>
<rect x="256" y="376.471" style="fill:#1E2E3B;" width="105.412" height="45.176"/>
<path style="fill:#3C5D76;" d="M342.43,90.353H169.568c-11.945,17.089-18.98,37.85-18.98,60.235s7.035,43.147,18.98,60.235H342.43
	c11.946-17.089,18.982-37.85,18.982-60.235S354.376,107.442,342.43,90.353z"/>
<path style="fill:#1E2E3B;" d="M342.43,90.353H256v120.471h86.43c11.946-17.089,18.982-37.85,18.982-60.235
	S354.376,107.442,342.43,90.353z"/>
<g>
</g>
<g>
</g>
<g>
</g>
<g>
</g>
<g>
</g>
<g>
</g>
<g>
</g>
<g>
</g>
<g>
</g>
<g>
</g>
<g>
</g>
<g>
</g>
<g>
</g>
<g>
</g>
<g>
</g>
</svg>
