<?xml version="1.0" encoding="iso-8859-1"?>
<!-- Generator: Adobe Illustrator 19.0.0, SVG Export Plug-In . SVG Version: 6.00 Build 0)  -->
<svg version="1.1" id="Layer_1" xmlns="http://www.w3.org/2000/svg" xmlns:xlink="http://www.w3.org/1999/xlink" x="0px" y="0px"
	 viewBox="0 0 290.512 290.512" style="enable-background:new 0 0 290.512 290.512;" xml:space="preserve">
<g>
	<g>
		<circle style="fill:#F9BA48;" cx="145.256" cy="145.256" r="145.256"/>
		<path style="fill:#333333;" d="M281.14,182.741c-52.498,0-140.57-3.65-140.57-28.114c0-25.378,101.581-28.114,145.256-28.114
			v9.371c-96.028,0-135.884,12.206-135.884,18.743c0,6.115,32.069,18.743,131.199,18.743L281.14,182.741L281.14,182.741z"/>
		<path style="fill:#333333;" d="M36.534,127.033c-10.594,0-21.268-0.164-32.008-0.52l0.314-9.371
			c138.321,4.597,269.323-23.049,270.63-23.33l1.963,9.165C276.22,103.239,163.595,127.033,36.534,127.033z"/>
		<path style="fill:#333333;" d="M251.972,243.538c-119.606-27.603-222.204-14.123-223.225-13.982l-1.27-9.282
			c1.04-0.145,105.334-13.851,226.599,14.132L251.972,243.538z"/>
		<path style="fill:#333333;" d="M191.419,206.118c-92.045-13.809-176.008-4.761-176.846-4.662l-1.031-9.315
			c0.853-0.094,86.024-9.273,179.269,4.709L191.419,206.118z"/>
		<path style="fill:#333333;" d="M33.268,178.032l-0.937-9.324c17.768-1.781,35.175-5.59,41.004-8.776
			c-9.413-3.303-41.159-5.304-68.65-5.304v-9.371c79.656,0,79.656,9.849,79.656,14.057C84.342,168.347,67.16,174.644,33.268,178.032
			z"/>
		<path style="fill:#333333;" d="M92.144,82.674c-41,0-68.748-2.994-69.231-3.046l1.036-9.31
			c0.839,0.094,84.857,9.132,176.842-4.662l1.392,9.268C161.96,80.95,123.238,82.674,92.144,82.674z"/>
		<path style="fill:#333333;" d="M57.067,257.637l-1.673-9.221c2.132-0.389,52.686-9.442,90.447-4.723l-1.162,9.296
			C108.333,248.453,57.573,257.543,57.067,257.637z"/>
		<path style="fill:#333333;" d="M92.598,66.79c-19.099,0-41.909-1.218-56.593-6.115l2.966-8.889
			c26.9,8.968,86.586,4.503,87.186,4.461l0.717,9.343C125.637,65.679,110.802,66.79,92.598,66.79z"/>
		<path style="fill:#333333;" d="M121.827,159.313h-9.371c0-7.811,5.684-23.724,27.196-28.02l1.841,9.189
			C122.052,144.365,121.827,159.163,121.827,159.313z"/>
	</g>
</g>
<g>
</g>
<g>
</g>
<g>
</g>
<g>
</g>
<g>
</g>
<g>
</g>
<g>
</g>
<g>
</g>
<g>
</g>
<g>
</g>
<g>
</g>
<g>
</g>
<g>
</g>
<g>
</g>
<g>
</g>
</svg>
