<?xml version="1.0" encoding="iso-8859-1"?>
<!-- Generator: Adobe Illustrator 19.0.0, SVG Export Plug-In . SVG Version: 6.00 Build 0)  -->
<svg version="1.1" id="Capa_1" xmlns="http://www.w3.org/2000/svg" xmlns:xlink="http://www.w3.org/1999/xlink" x="0px" y="0px"
	 viewBox="0 0 380 380" style="enable-background:new 0 0 380 380;" xml:space="preserve">
<g id="XMLID_311_">
	<polygon id="XMLID_444_" style="fill:#F7AED1;" points="244.848,95 190,0 190,189.999 	"/>
	<polygon id="XMLID_445_" style="fill:#F7AED1;" points="190,189.999 190,189.999 190.001,189.999 	"/>
	<polygon id="XMLID_446_" style="fill:#EA348B;" points="190,0 135.152,95 190,189.999 	"/>
	<polygon id="XMLID_447_" style="fill:#91DC5A;" points="190,380 190,190 135.152,285 	"/>
	<polygon id="XMLID_448_" style="fill:#64C37D;" points="244.848,285 190,190 190,380 	"/>
	<polygon id="XMLID_449_" style="fill:#FF9811;" points="190,189.999 135.152,95 25.455,94.999 189.999,189.999 	"/>
	<polygon id="XMLID_450_" style="fill:#FF5023;" points="25.455,94.999 80.305,189.999 189.999,189.999 	"/>
	<polygon id="XMLID_451_" style="fill:#99EFF2;" points="190,190 244.85,284.999 354.545,285 190,189.999 	"/>
	<polygon id="XMLID_452_" style="fill:#00D7DF;" points="190,189.999 354.545,285 299.697,190 	"/>
	<polygon id="XMLID_453_" style="fill:#FFDA44;" points="189.999,189.999 80.305,189.999 25.455,284.999 190,189.999 	"/>
	<polygon id="XMLID_454_" style="fill:#FF9811;" points="25.455,284.999 135.152,284.998 190,189.999 190,189.999 	"/>
	<polygon id="XMLID_455_" style="fill:#7C84E8;" points="299.697,189.998 354.545,94.999 190,189.999 190.001,189.999 	"/>
	<polygon id="XMLID_458_" style="fill:#933EC5;" points="244.85,94.998 190,189.999 354.545,94.999 	"/>
</g>
<g>
</g>
<g>
</g>
<g>
</g>
<g>
</g>
<g>
</g>
<g>
</g>
<g>
</g>
<g>
</g>
<g>
</g>
<g>
</g>
<g>
</g>
<g>
</g>
<g>
</g>
<g>
</g>
<g>
</g>
</svg>
